<?xml version="1.0" encoding="utf-8"?>
<!-- Generator: Adobe Illustrator 16.0.3, SVG Export Plug-In . SVG Version: 6.00 Build 0)  -->
<!DOCTYPE svg PUBLIC "-//W3C//DTD SVG 1.1//EN" "http://www.w3.org/Graphics/SVG/1.1/DTD/svg11.dtd">
<svg version="1.1" id="_x30_2" xmlns="http://www.w3.org/2000/svg" xmlns:xlink="http://www.w3.org/1999/xlink" x="0px" y="0px"
	 width="1920px" height="1080px" viewBox="0 0 1920 1080" style="enable-background:new 0 0 1920 1080;" xml:space="preserve">
<style type="text/css">
<![CDATA[
	.st0{fill:#F2F2F2;}
]]>
</style>
<g id="_x31_2">
	<g>
		<path class="st0" d="M806,1059l-14.1-39.2l-14,38.9l-18.3-51l-24.7,68.8l-19.7-54.7L699,1067l-8-31.8l-10.3,41.2l-11.9-47.2
			l-12.1,48.2l-14.1-56.2l-12.4,49.2l-15.9-63.3l-14.9,59.4c-100.4-47.4-212.5-109.8-290-181C242.6,813,164.8,782,101.2,769.4
			l-9.8-39.1l-9,35.8c-0.4-0.1-0.8-0.1-1.2-0.2l-10-39.7l-9.4,37.3c-1-0.1-2-0.2-3-0.3L45,708.1l-13.5,53.6
			c-12.8-0.3-23.8,0-32.5,0.5v321.9h892.9l-47.5-132L806,1059z"/>
		<polygon class="st0" points="1827.6,937.4 1750.9,724 1637,1040.7 1573.2,863.3 1499.3,1068.9 1431.9,881.5 1356.1,1059.7 
			1300.7,938 1254.6,1066 1234,1008.7 1214.1,1064.2 1187.6,990.5 1166.1,1050.2 1096.8,857.3 1018.6,1074.6 979.7,966.3 
			941.4,1072.7 919.1,1010.7 892.7,1084.2 1935.6,1084.2 1935.6,637.1 		"/>
	</g>
</g>
</svg>
