<?xml version="1.0" encoding="utf-8"?>
<!-- Generator: Adobe Illustrator 16.0.3, SVG Export Plug-In . SVG Version: 6.00 Build 0)  -->
<!DOCTYPE svg PUBLIC "-//W3C//DTD SVG 1.1//EN" "http://www.w3.org/Graphics/SVG/1.1/DTD/svg11.dtd">
<svg version="1.1" id="_x30_5" xmlns="http://www.w3.org/2000/svg" xmlns:xlink="http://www.w3.org/1999/xlink" x="0px" y="0px"
	 width="1920px" height="1080px" viewBox="0 0 1920 1080" style="enable-background:new 0 0 1920 1080;" xml:space="preserve">
<style type="text/css">
<![CDATA[
	.st0{fill:#B2B2B2;}
]]>
</style>
<g id="_x30_9">
	<path class="st0" d="M1917.6,1080V797.6c-92.7,82.2-225.3,110.7-225.3,110.7l-177.5-170.4l-35.3-9.1l-13.1-17.1l-89.8-12.1
		L1209.2,749l-91.8-45.4l-116,20.2c0,0-192.6-106.9-211.8-106.9s-164.4,86.7-164.4,86.7s-13.1,0-86.7-10.1
		c-73.6-10.1-158.3-89.8-215.8-87.7c-57.5,2.1-88.7,48.4-106.9,48.4c-18.2,0-57.5-14.1-57.5-14.1L108,596.7L-1,533.3V1080H1917.6z"
		/>
</g>
</svg>
