<?xml version="1.0" encoding="utf-8"?>
<!-- Generator: Adobe Illustrator 16.0.3, SVG Export Plug-In . SVG Version: 6.00 Build 0)  -->
<!DOCTYPE svg PUBLIC "-//W3C//DTD SVG 1.1//EN" "http://www.w3.org/Graphics/SVG/1.1/DTD/svg11.dtd">
<svg version="1.1" id="_x30_7_1_" xmlns="http://www.w3.org/2000/svg" xmlns:xlink="http://www.w3.org/1999/xlink" x="0px" y="0px"
	 width="1920px" height="1080px" viewBox="0 0 1920 1080" style="enable-background:new 0 0 1920 1080;" xml:space="preserve">
<style type="text/css">
<![CDATA[
	.st0{fill:#999999;}
]]>
</style>
<g id="_x30_7">
	<path class="st0" d="M1923,1080V406.4l-81.5,37.6l-26-12.7l-36.7,14.8l-19.9-8.2l-77,35.7l-70.3-40.3l-52.5,2.5l-39.2-28L1500,417
		l-26,1l-84.6,31.1l-38.7,0.5l-109.1,41.8c0,0-20.9,19.9-80.5,39.8c-66.8-7.1-231.4,84.1-231.4,84.1l-33.1-9.2l-80,25l-15.3-13.3
		l-16.3,3.6l-79-54.5l-30.6-8.2L549,494.9l-28.5,3.1l-23.9,11.1l-38.2-1L401.2,526l-47.9-13.3L294.6,523c0,0-39.2,10.2-70.3,25
		c-52-16.3-159,24-159,24S25.7,540.2-1,530v550H1923z"/>
</g>
</svg>
