<?xml version="1.0" encoding="utf-8"?>
<!-- Generator: Adobe Illustrator 16.0.3, SVG Export Plug-In . SVG Version: 6.00 Build 0)  -->
<!DOCTYPE svg PUBLIC "-//W3C//DTD SVG 1.1//EN" "http://www.w3.org/Graphics/SVG/1.1/DTD/svg11.dtd">
<svg version="1.1" id="_x30_9" xmlns="http://www.w3.org/2000/svg" xmlns:xlink="http://www.w3.org/1999/xlink" x="0px" y="0px"
	 width="1920px" height="1080px" viewBox="0 0 1920 1080" style="enable-background:new 0 0 1920 1080;" xml:space="preserve">
<style type="text/css">
<![CDATA[
	.st0{fill:#808080;}
]]>
</style>
<g id="_x30_5">
	<polygon class="st0" points="1849,304.5 1794,314.5 1718,353.5 1655,349.5 1633,362.5 1611,347.5 1547,349.5 1517.5,341 
		1495,352.5 1485,359.5 1436.5,361 1395.5,383 1301.5,378 1284,369 1265,378.5 1233.5,391 1102,413.5 1019,433.5 913,434.5 
		882,446.5 687,442.5 615,428.4 522,449.5 485,433.5 429,428.5 393,403.5 351,401.5 311.1,436.1 213,455.5 186,436.5 145,432.5 
		94.6,378 66.1,370.3 26,375.5 -1,341.2 -1,1080 1920.1,1080 1923,296.5 1884,281.5 	"/>
</g>
</svg>
