<?xml version="1.0" encoding="utf-8"?>
<!-- Generator: Adobe Illustrator 16.0.3, SVG Export Plug-In . SVG Version: 6.00 Build 0)  -->
<!DOCTYPE svg PUBLIC "-//W3C//DTD SVG 1.1//EN" "http://www.w3.org/Graphics/SVG/1.1/DTD/svg11.dtd">
<svg version="1.1" id="_x31_2" xmlns="http://www.w3.org/2000/svg" xmlns:xlink="http://www.w3.org/1999/xlink" x="0px" y="0px"
	 width="1920px" height="1080px" viewBox="0 0 1920 1080" style="enable-background:new 0 0 1920 1080;" xml:space="preserve">
<style type="text/css">
<![CDATA[
	.st0{fill:#666666;}
]]>
</style>
<g id="_x30_2">
	<path class="st0" d="M1923,1080V292.1c-7.4-3.9-16.7-7-25.8-5.4c-19.5,3.6-37,21.9-37,21.9l-13.7-13l-18.5,4.8l-45.9-15.7
		l-29.4,1.4l-15.1-11.6l-24,13l-54.1-58.2l-84.9-4.1l-24,13.7l-47.2,2.1l-23.3-5.5l-23.3,8.9l-24.6-6.2l-54.7,25.3l-13-4.8
		l-34.9,11.6l-24.6-10.9l-37,19.2l-67.8,3.4l-39-34.2c0,0-67.8-26-92.4-14.4c-24.6,11.6-82.8,36.3-82.8,36.3h-79.4l-64.3-19.2
		l-25.3,9.6l-24-7.5l-77.3-4.1l-44.5,4.8l-181.4-37.6l-33.5-17.8l-28.1-18.5l-32.8-2.7l-6.8-11.6c0,0,19.8-2.9-30.8-2.1
		c-50.6,0.9-179.3,94.4-179.3,94.4s-2.1-6.5-10.3-2.7c-8.2,3.8-90.3,40.4-90.3,40.4l-27.4-4.8l-51.8,9V1080H1923z"/>
</g>
</svg>
