<?xml version="1.0" encoding="utf-8"?>
<!-- Generator: Adobe Illustrator 16.0.3, SVG Export Plug-In . SVG Version: 6.00 Build 0)  -->
<!DOCTYPE svg PUBLIC "-//W3C//DTD SVG 1.1//EN" "http://www.w3.org/Graphics/SVG/1.1/DTD/svg11.dtd">
<svg version="1.1" id="_x30_4" xmlns="http://www.w3.org/2000/svg" xmlns:xlink="http://www.w3.org/1999/xlink" x="0px" y="0px"
	 width="1920px" height="1080px" viewBox="0 0 1920 1080" style="enable-background:new 0 0 1920 1080;" xml:space="preserve">
<style type="text/css">
<![CDATA[
	.st0{fill:#E00079;}
	.st1{fill:#9E0E58;}
]]>
</style>
<g id="_x31_0">
	<g>
		<path class="st1" d="M535.8,932.8c-4,5.3-10.4,8.8-17.6,8.8c-12.2,0-22.1-9.9-22.1-22.1c0-2.3,0.3-4.5,1-6.5
			c-11-2.3-23.6-2.8-37.9-0.8c0,32.6,26.4,59,59,59c14.2,0,27.2-5,37.4-13.4C550.4,948.8,543.9,940.2,535.8,932.8z"/>
		<path class="st1" d="M657.4,913c0.6,2.1,1,4.3,1,6.5c0,12.2-9.9,22.1-22.1,22.1c-7.2,0-13.6-3.5-17.6-8.8
			c-8.1,7.3-14.5,15.9-19.8,24.9c10.2,8.4,23.2,13.4,37.4,13.4c32.6,0,59-26.4,59-59C680.9,910.1,668.4,910.6,657.4,913z"/>
		<path class="st0" d="M636.2,853.1c-32.6,0-59,26.4-59,59c0-32.6-26.4-59-59-59c-32.6,0-59,26.4-59,59c14.3-2,26.8-1.5,37.9,0.8
			c2.8-9,11.2-15.6,21.1-15.6c12.2,0,22.1,9.9,22.1,22.1c0,5-1.7,9.6-4.5,13.3c8,7.3,14.5,15.9,19.8,24.9
			c19.4,33.4,21.6,72.4,21.6,72.4s2.2-39,21.6-72.4c5.2-9,11.7-17.6,19.8-24.9c-2.8-3.7-4.5-8.3-4.5-13.3c0-12.2,9.9-22.1,22.1-22.1
			c9.9,0,18.3,6.6,21.1,15.6c11-2.3,23.6-2.8,37.9-0.8C695.2,879.6,668.8,853.1,636.2,853.1z"/>
	</g>
</g>
</svg>
