<?xml version="1.0" encoding="utf-8"?>
<!-- Generator: Adobe Illustrator 16.0.3, SVG Export Plug-In . SVG Version: 6.00 Build 0)  -->
<!DOCTYPE svg PUBLIC "-//W3C//DTD SVG 1.1//EN" "http://www.w3.org/Graphics/SVG/1.1/DTD/svg11.dtd">
<svg version="1.1" id="_x30_6" xmlns="http://www.w3.org/2000/svg" xmlns:xlink="http://www.w3.org/1999/xlink" x="0px" y="0px"
	 width="1920px" height="1080px" viewBox="0 0 1920 1080" style="enable-background:new 0 0 1920 1080;" xml:space="preserve">
<style type="text/css">
<![CDATA[
	.st0{fill:#E00079;}
	.st1{fill:#FFFFFF;}
	.st2{fill:#9E0E58;}
]]>
</style>
<g>
	<path class="st0" d="M1399,719.3c-3.6-3.3-8.2-5.9-13.8-7.1c-3.9-0.8-8.4-1-13.5-0.3c0,11.6,9.4,21,21,21c5.1,0,9.7-1.8,13.3-4.8
		C1404.2,725,1401.9,721.9,1399,719.3z"/>
	<path class="st0" d="M1442.3,712.2c-5.6,1.2-10.2,3.8-13.8,7.1c-2.9,2.6-5.2,5.7-7,8.9c3.6,3,8.3,4.8,13.3,4.8c11.6,0,21-9.4,21-21
		C1450.7,711.2,1446.2,711.4,1442.3,712.2z"/>
	<path class="st2" d="M1434.8,690.9c-11.6,0-21,9.4-21,21c0-11.6-9.4-21-21-21c-11.6,0-21,9.4-21,21c5.1-0.7,9.5-0.5,13.5,0.3
		c1-3.2,4-5.5,7.5-5.5c4.3,0,7.9,3.5,7.9,7.9c0,1.8-0.6,3.4-1.6,4.7c2.9,2.6,5.2,5.7,7,8.9c6.9,11.9,7.7,25.8,7.7,25.8
		s0.8-13.9,7.7-25.8c1.9-3.2,4.2-6.3,7-8.9c-1-1.3-1.6-3-1.6-4.7c0-4.3,3.5-7.9,7.9-7.9c3.5,0,6.5,2.3,7.5,5.5
		c3.9-0.8,8.4-1,13.5-0.3C1455.8,700.3,1446.4,690.9,1434.8,690.9z"/>
</g>
<circle class="st1" cx="861.3" cy="722.9" r="40.5"/>
<circle class="st2" cx="861.3" cy="728" r="15.2"/>
<circle class="st1" cx="942.3" cy="722.9" r="40.5"/>
<circle class="st2" cx="942.3" cy="728" r="15.2"/>
<path class="st0" d="M942.3,682.4c-22.4,0-40.5,18.2-40.5,40.5c0-22.3-18.2-40.5-40.5-40.5c-22.4,0-40.5,18.1-40.5,40.5
	c75.9-10.7,81,81,81,81s5.1-91.7,81-81C982.8,700.5,964.7,682.4,942.3,682.4z"/>
</svg>
