<?xml version="1.0" encoding="utf-8"?>
<!-- Generator: Adobe Illustrator 16.0.3, SVG Export Plug-In . SVG Version: 6.00 Build 0)  -->
<!DOCTYPE svg PUBLIC "-//W3C//DTD SVG 1.1//EN" "http://www.w3.org/Graphics/SVG/1.1/DTD/svg11.dtd">
<svg version="1.1" id="_x30_8" xmlns="http://www.w3.org/2000/svg" xmlns:xlink="http://www.w3.org/1999/xlink" x="0px" y="0px"
	 width="1920px" height="1080px" viewBox="0 0 1920 1080" style="enable-background:new 0 0 1920 1080;" xml:space="preserve">
<style type="text/css">
<![CDATA[
	.st0{fill:#E00079;}
	.st1{fill:#9E0E58;}
]]>
</style>
<g id="_x30_6">
	<g>
		<path class="st0" d="M728.9,644.9c-5.4-4.9-12.1-8.7-20.4-10.4c-5.8-1.2-12.4-1.5-19.9-0.4c0,17.1,13.9,31,31,31
			c7.5,0,14.3-2.6,19.7-7C736.5,653.3,733.1,648.8,728.9,644.9z"/>
		<path class="st0" d="M792.7,634.5c-8.3,1.8-15,5.6-20.4,10.4c-4.2,3.8-7.6,8.4-10.4,13.1c5.3,4.4,12.2,7,19.7,7
			c17.1,0,31-13.9,31-31C805.1,633,798.5,633.3,792.7,634.5z"/>
		<path class="st1" d="M781.6,603.1c-17.1,0-31,13.9-31,31c0-17.1-13.9-31-31-31c-17.1,0-31,13.9-31,31c7.5-1.1,14.1-0.8,19.9,0.4
			c1.5-4.7,5.9-8.2,11.1-8.2c6.4,0,11.6,5.2,11.6,11.6c0,2.6-0.9,5.1-2.4,7c4.2,3.8,7.6,8.4,10.4,13.1c10.2,17.5,11.3,38,11.3,38
			s1.1-20.5,11.3-38c2.8-4.7,6.2-9.3,10.4-13.1c-1.5-1.9-2.4-4.4-2.4-7c0-6.4,5.2-11.6,11.6-11.6c5.2,0,9.6,3.4,11.1,8.2
			c5.8-1.2,12.4-1.5,19.9-0.4C812.6,616.9,798.7,603.1,781.6,603.1z"/>
	</g>
</g>
</svg>
