<?xml version="1.0" encoding="utf-8"?>
<!-- Generator: Adobe Illustrator 16.0.3, SVG Export Plug-In . SVG Version: 6.00 Build 0)  -->
<!DOCTYPE svg PUBLIC "-//W3C//DTD SVG 1.1//EN" "http://www.w3.org/Graphics/SVG/1.1/DTD/svg11.dtd">
<svg version="1.1" id="_x31_0" xmlns="http://www.w3.org/2000/svg" xmlns:xlink="http://www.w3.org/1999/xlink" x="0px" y="0px"
	 width="1920px" height="1080px" viewBox="0 0 1920 1080" style="enable-background:new 0 0 1920 1080;" xml:space="preserve">
<style type="text/css">
<![CDATA[
	.st0{fill:#E00079;}
	.st1{fill:#9E0E58;}
]]>
</style>
<g id="_x30_3">
	<g>
		<path class="st1" d="M929,459.3c0,20.4,16.6,37,37,37c20.4,0,37-16.6,37-37C1003,438.9,929,438.9,929,459.3z M966,477.8
			c-7.7,0-13.9-6.2-13.9-13.9S958.3,450,966,450c7.7,0,13.9,6.2,13.9,13.9S973.7,477.8,966,477.8z"/>
		<path class="st1" d="M1003,459.3c0,20.4,16.6,37,37,37c20.4,0,37-16.6,37-37C1077,438.9,1003,438.9,1003,459.3z M1040,477.8
			c-7.7,0-13.9-6.2-13.9-13.9s6.2-13.9,13.9-13.9c7.7,0,13.9,6.2,13.9,13.9S1047.7,477.8,1040,477.8z"/>
		<path class="st0" d="M1040,422.3c-20.4,0-37,16.6-37,37c0-20.4-16.6-37-37-37c-20.4,0-37,16.6-37,37c69.4-9.8,74,74,74,74
			s4.6-83.8,74-74C1077,438.9,1060.4,422.3,1040,422.3z"/>
	</g>
</g>
</svg>
