<?xml version="1.0" encoding="utf-8"?>
<!-- Generator: Adobe Illustrator 16.0.3, SVG Export Plug-In . SVG Version: 6.00 Build 0)  -->
<!DOCTYPE svg PUBLIC "-//W3C//DTD SVG 1.1//EN" "http://www.w3.org/Graphics/SVG/1.1/DTD/svg11.dtd">
<svg version="1.1" id="w11" xmlns="http://www.w3.org/2000/svg" xmlns:xlink="http://www.w3.org/1999/xlink" x="0px" y="0px"
	 width="1920px" height="1080px" viewBox="0 0 1920 1080" style="enable-background:new 0 0 1920 1080;" xml:space="preserve">
<style type="text/css">
<![CDATA[
	.st0{fill:#9E0E58;}
]]>
</style>
<g id="_x30_4">
	<path class="st0" d="M593.7,471.5c-9.1,0-16.5,7.4-16.5,16.5c0-9.1-7.4-16.5-16.5-16.5c-9.1,0-16.5,7.4-16.5,16.5
		c0,9.1,7.4,16.5,16.5,16.5c4,0,7.6-1.4,10.5-3.7c5.4,9.3,6,20.2,6,20.2s0.6-10.9,6-20.2c2.8,2.3,6.5,3.7,10.5,3.7
		c9.1,0,16.5-7.4,16.5-16.5C610.2,478.9,602.8,471.5,593.7,471.5z"/>
	<path class="st0" d="M772.5,437.3c-5.8,0-10.5,4.7-10.5,10.5c0-5.8-4.7-10.5-10.5-10.5c-5.8,0-10.5,4.7-10.5,10.5
		s4.7,10.5,10.5,10.5c2.5,0,4.8-0.9,6.7-2.4c3.5,5.9,3.8,12.9,3.8,12.9s0.4-6.9,3.8-12.9c1.8,1.5,4.1,2.4,6.7,2.4
		c5.8,0,10.5-4.7,10.5-10.5S778.3,437.3,772.5,437.3z"/>
	<path class="st0" d="M1242.1,406.5c-5.8,0-10.5,4.7-10.5,10.5c0-5.8-4.7-10.5-10.5-10.5s-10.5,4.7-10.5,10.5
		c0,5.8,4.7,10.5,10.5,10.5c2.5,0,4.8-0.9,6.7-2.4c3.5,5.9,3.8,12.9,3.8,12.9s0.4-6.9,3.8-12.9c1.8,1.5,4.1,2.4,6.7,2.4
		c5.8,0,10.5-4.7,10.5-10.5C1252.6,411.3,1247.9,406.5,1242.1,406.5z"/>
	<path class="st0" d="M279.7,428.3c-9.1,0-16.5,7.4-16.5,16.5c0-9.1-7.4-16.5-16.5-16.5c-9.1,0-16.5,7.4-16.5,16.5
		c0,9.1,7.4,16.5,16.5,16.5c4,0,7.6-1.4,10.5-3.7c5.4,9.3,6,20.2,6,20.2s0.6-10.9,6-20.2c2.8,2.3,6.5,3.7,10.5,3.7
		c9.1,0,16.5-7.4,16.5-16.5C296.2,435.7,288.8,428.3,279.7,428.3z"/>
</g>
</svg>
