<?xml version="1.0" encoding="utf-8"?>
<!-- Generator: Adobe Illustrator 16.0.3, SVG Export Plug-In . SVG Version: 6.00 Build 0)  -->
<!DOCTYPE svg PUBLIC "-//W3C//DTD SVG 1.1//EN" "http://www.w3.org/Graphics/SVG/1.1/DTD/svg11.dtd">
<svg version="1.1" id="Vrstva_1" xmlns="http://www.w3.org/2000/svg" xmlns:xlink="http://www.w3.org/1999/xlink" x="0px" y="0px"
	 width="61px" height="45px" viewBox="0 0 61 45" style="enable-background:new 0 0 61 45;" xml:space="preserve">
<style type="text/css">
<![CDATA[
	.st0{fill:#E1007A;}
	.st1{fill:#FFFFFF;}
	.st2{fill:#9E0E58;}
	.st3{fill:#9F0057;}
]]>
</style>
<path class="st2" d="M44.3,1.8c-7.6,0-13.8,6.2-13.8,13.8c0-7.6-6.2-13.8-13.8-13.8C9.1,1.8,2.9,8,2.9,15.6
	c0,7.6,6.2,13.8,13.8,13.8c3.3,0,6.4-1.2,8.7-3.1c4.5,7.8,5,16.9,5,16.9s0.5-9.1,5-16.9c2.4,2,5.4,3.1,8.7,3.1
	c7.6,0,13.8-6.2,13.8-13.8C58.1,8,51.9,1.8,44.3,1.8z"/>
</svg>
