<?xml version="1.0" encoding="utf-8"?>
<!-- Generator: Adobe Illustrator 16.0.3, SVG Export Plug-In . SVG Version: 6.00 Build 0)  -->
<!DOCTYPE svg PUBLIC "-//W3C//DTD SVG 1.1//EN" "http://www.w3.org/Graphics/SVG/1.1/DTD/svg11.dtd">
<svg version="1.1" id="Vrstva_1" xmlns="http://www.w3.org/2000/svg" xmlns:xlink="http://www.w3.org/1999/xlink" x="0px" y="0px"
	 width="162px" height="123px" viewBox="0 0 162 123" style="enable-background:new 0 0 162 123;" xml:space="preserve">
<style type="text/css">
<![CDATA[
	.st0{fill:#E1007A;}
	.st1{fill:#FFFFFF;}
	.st2{fill:#9F0057;}
]]>
</style>
<circle class="st1" cx="42.6" cy="46.1" r="17.4"/>
<circle class="st1" cx="121.6" cy="46.1" r="17.4"/>
<g>
	<path class="st2" d="M54,55.8c-2.7,3.5-6.9,5.8-11.7,5.8c-8.1,0-14.6-6.5-14.6-14.6c0-1.5,0.2-3,0.7-4.3c-7.3-1.6-15.6-1.9-25-0.5
		c0,21.5,17.5,39,39,39c9.4,0,18-3.3,24.7-8.8C63.6,66.4,59.3,60.7,54,55.8z"/>
	<path class="st2" d="M134.3,42.7c0.4,1.4,0.7,2.8,0.7,4.3c0,8.1-6.5,14.6-14.6,14.6c-4.8,0-9-2.3-11.7-5.8
		c-5.3,4.8-9.6,10.5-13.1,16.5c6.7,5.5,15.3,8.8,24.7,8.8c21.5,0,39-17.5,39-39C149.9,40.8,141.6,41.2,134.3,42.7z"/>
	<path class="st0" d="M120.3,3.2c-21.5,0-39,17.5-39,39c0-21.5-17.5-39-39-39s-39,17.5-39,39c9.4-1.3,17.7-1,25,0.5
		c1.8-6,7.4-10.3,14-10.3C50.4,32.4,57,39,57,47c0,3.3-1.1,6.4-3,8.8c5.3,4.8,9.6,10.5,13.1,16.5c12.8,22.1,14.3,47.8,14.3,47.8
		s1.4-25.8,14.3-47.8c3.5-6,7.8-11.6,13.1-16.5c-1.9-2.5-3-5.5-3-8.8c0-8.1,6.5-14.6,14.6-14.6c6.6,0,12.1,4.3,14,10.3
		c7.3-1.6,15.6-1.9,25-0.5C159.3,20.6,141.9,3.2,120.3,3.2z"/>
</g>
</svg>
