<?xml version="1.0" encoding="utf-8"?>
<!-- Generator: Adobe Illustrator 16.0.3, SVG Export Plug-In . SVG Version: 6.00 Build 0)  -->
<!DOCTYPE svg PUBLIC "-//W3C//DTD SVG 1.1//EN" "http://www.w3.org/Graphics/SVG/1.1/DTD/svg11.dtd">
<svg version="1.1" id="Vrstva_1" xmlns="http://www.w3.org/2000/svg" xmlns:xlink="http://www.w3.org/1999/xlink" x="0px" y="0px"
	 width="138px" height="105px" viewBox="0 0 138 105" style="enable-background:new 0 0 138 105;" xml:space="preserve">
<style type="text/css">
<![CDATA[
	.st0{fill:#E1007A;}
	.st1{fill:#FFFFFF;}
	.st2{fill:#9F0057;}
]]>
</style>
<ellipse class="st1" cx="36.9" cy="39.2" rx="16.1" ry="14.7"/>
<ellipse class="st1" cx="102.6" cy="39.2" rx="16.1" ry="14.7"/>
<g>
	<path class="st0" d="M45.9,47.6c-5.7-5.2-12.8-9.2-21.7-11.1C18,35.2,11,34.9,3,36c0,18.2,14.8,33,33,33c7.9,0,15.2-2.8,20.9-7.5
		C54,56.5,50.4,51.7,45.9,47.6z"/>
	<path class="st0" d="M113.8,36.5c-8.9,1.9-16,5.9-21.7,11.1C87.6,51.7,84,56.5,81,61.5c5.7,4.7,13,7.5,20.9,7.5
		c18.2,0,33-14.8,33-33C127,34.9,120,35.2,113.8,36.5z"/>
	<path class="st2" d="M102,3C83.8,3,69,17.8,69,36C69,17.8,54.2,3,36,3S3,17.8,3,36c8-1.1,15-0.8,21.2,0.5c1.6-5,6.3-8.7,11.8-8.7
		c6.8,0,12.4,5.5,12.4,12.4c0,2.8-0.9,5.4-2.5,7.5c4.5,4.1,8.1,8.9,11.1,13.9C67.8,80.2,69,102,69,102s1.2-21.8,12.1-40.5
		c2.9-5,6.6-9.8,11.1-13.9c-1.6-2.1-2.5-4.7-2.5-7.5c0-6.8,5.5-12.4,12.4-12.4c5.6,0,10.3,3.7,11.8,8.7C120,35.2,127,34.9,135,36
		C135,17.8,120.2,3,102,3z"/>
</g>
</svg>
