<?xml version="1.0" encoding="utf-8"?>
<!-- Generator: Adobe Illustrator 16.0.3, SVG Export Plug-In . SVG Version: 6.00 Build 0)  -->
<!DOCTYPE svg PUBLIC "-//W3C//DTD SVG 1.1//EN" "http://www.w3.org/Graphics/SVG/1.1/DTD/svg11.dtd">
<svg version="1.1" id="Vrstva_1" xmlns="http://www.w3.org/2000/svg" xmlns:xlink="http://www.w3.org/1999/xlink" x="0px" y="0px"
	 width="159px" height="118px" viewBox="0 0 159 118" style="enable-background:new 0 0 159.3 118;" xml:space="preserve">
<style type="text/css">
<![CDATA[
	.st0{fill:#E1007A;}
	.st1{fill:#FFFFFF;}
	.st2{fill:#9E0E58;}
	.st3{fill:#9F0057;}
]]>
</style>
<g>
	<path class="st1" d="M79.7,40.4c0,20.5-16.6,37.2-37.2,37.2S5.3,60.9,5.3,40.4S21.9,3.2,42.5,3.2S79.7,19.9,79.7,40.4z"/>
	<path class="st3" d="M56.4,45.1c0,7.7-6.2,13.9-13.9,13.9c-7.7,0-13.9-6.2-13.9-13.9c0-7.7,6.2-13.9,13.9-13.9
		C50.2,31.1,56.4,37.4,56.4,45.1z"/>
	<circle class="st1" cx="116.9" cy="40.4" r="37.2"/>
	<path class="st3" d="M102.9,45.1c0,7.7,6.2,13.9,13.9,13.9s13.9-6.2,13.9-13.9c0-7.7-6.2-13.9-13.9-13.9S102.9,37.4,102.9,45.1z"/>
	<path class="st0" d="M116.9,3.2c-20.5,0-37.2,16.7-37.2,37.2C79.7,19.9,63,3.2,42.5,3.2S5.3,19.9,5.3,40.4
		c69.7-9.8,74.4,74.4,74.4,74.4s4.7-84.2,74.4-74.4C154,19.9,137.4,3.2,116.9,3.2z"/>
</g>
</svg>
