<?xml version="1.0" encoding="utf-8"?>
<!-- Generator: Adobe Illustrator 16.0.3, SVG Export Plug-In . SVG Version: 6.00 Build 0)  -->
<!DOCTYPE svg PUBLIC "-//W3C//DTD SVG 1.1//EN" "http://www.w3.org/Graphics/SVG/1.1/DTD/svg11.dtd">
<svg version="1.1" id="Vrstva_1" xmlns="http://www.w3.org/2000/svg" xmlns:xlink="http://www.w3.org/1999/xlink" x="0px" y="0px"
	 width="206px" height="155px" viewBox="0 0 206 155" style="enable-background:new 0 0 206 155;" xml:space="preserve">
<style type="text/css">
<![CDATA[
	.st0{fill:#E1007A;}
	.st1{fill:#FFFFFF;}
	.st2{fill:#9F0057;}
]]>
</style>
<circle class="st1" cx="54" cy="60.5" r="19.5"/>
<circle class="st1" cx="152" cy="60.5" r="19.5"/>
<g>
	<path class="st2" d="M5,53.2c0,27.1,21.9,49,49,49s49-21.9,49-49C103,26.1,5,26.1,5,53.2z M54,77.7c-10.1,0-18.4-8.2-18.4-18.4
		c0-10.2,8.2-18.4,18.4-18.4s18.4,8.2,18.4,18.4C72.4,69.4,64.1,77.7,54,77.7z"/>
	<path class="st2" d="M103,53.2c0,27.1,21.9,49,49,49s49-21.9,49-49C201,26.1,103,26.1,103,53.2z M152,77.7
		c-10.1,0-18.4-8.2-18.4-18.4c0-10.2,8.2-18.4,18.4-18.4s18.4,8.2,18.4,18.4C170.4,69.4,162.1,77.7,152,77.7z"/>
	<path class="st0" d="M152,4.2c-27.1,0-49,21.9-49,49c0-27.1-21.9-49-49-49S5,26.1,5,53.2c91.9-12.9,98,98,98,98s6.1-110.9,98-98
		C201,26.1,179.1,4.2,152,4.2z"/>
</g>
</svg>
