<?xml version="1.0" encoding="utf-8"?>
<!-- Generator: Adobe Illustrator 16.0.3, SVG Export Plug-In . SVG Version: 6.00 Build 0)  -->
<!DOCTYPE svg PUBLIC "-//W3C//DTD SVG 1.1//EN" "http://www.w3.org/Graphics/SVG/1.1/DTD/svg11.dtd">
<svg version="1.1" id="Vrstva_1" xmlns="http://www.w3.org/2000/svg" xmlns:xlink="http://www.w3.org/1999/xlink" x="0px" y="0px"
	 width="625.455px" height="470.909px" viewBox="0 0 625.455 470.909" enable-background="new 0 0 625.455 470.909"
	 xml:space="preserve">
<g>
	<path fill="none" stroke="#E1007A" stroke-width="3" stroke-linecap="round" stroke-linejoin="round" stroke-dasharray="3,10" d="
		M209.554,216.699c-10.201,13.476-26.32,22.223-44.523,22.223c-30.855,0-55.865-25.018-55.865-55.865
		c0-5.754,0.873-11.303,2.488-16.525c-27.883-5.933-59.552-7.17-95.596-2.096c0,82.276,66.695,148.973,148.973,148.973
		c35.859,0,68.752-12.674,94.461-33.781C246.262,256.887,229.876,235.174,209.554,216.699z"/>
	<path fill="none" stroke="#E1007A" stroke-width="3" stroke-linecap="round" stroke-linejoin="round" stroke-dasharray="3,10" d="
		M516.352,166.531c1.615,5.223,2.488,10.771,2.488,16.525c0,30.848-25.012,55.865-55.865,55.865
		c-18.203,0-34.324-8.747-44.523-22.223c-20.322,18.476-36.707,40.188-49.938,62.928c25.709,21.107,58.602,33.781,94.461,33.781
		c82.277,0,148.973-66.696,148.973-148.973C575.905,159.361,544.235,160.598,516.352,166.531z"/>
	<path fill="none" stroke="#E1007A" stroke-width="3" stroke-linecap="round" stroke-linejoin="round" stroke-dasharray="3,10" d="
		M314.002,164.435c0,46.418-21.233,87.87-54.511,115.191c49.049,84.316,54.511,182.753,54.511,182.753s5.463-98.437,54.512-182.753
		C335.237,252.305,314.002,210.853,314.002,164.435z"/>
	<path fill="none" stroke="#E1007A" stroke-width="3" stroke-linecap="round" stroke-linejoin="round" stroke-dasharray="3,10" d="
		M165.03,15.462c-82.277,0-148.973,66.689-148.973,148.973c36.044-5.074,67.713-3.837,95.596,2.096
		c39.967,8.506,72.102,26.715,97.9,50.168c20.322,18.476,36.708,40.188,49.938,62.928c33.277-27.321,54.511-68.773,54.511-115.191
		C314.002,82.152,247.308,15.462,165.03,15.462z"/>
	<path fill="none" stroke="#E1007A" stroke-width="3" stroke-linecap="round" stroke-linejoin="round" stroke-dasharray="3,10" d="
		M462.975,15.462c-82.277,0-148.973,66.689-148.973,148.973c0,46.418,21.235,87.87,54.512,115.191
		c13.23-22.739,29.615-44.452,49.938-62.928c25.799-23.453,57.934-41.662,97.9-50.168c27.883-5.933,59.553-7.17,95.596-2.096
		C611.948,82.152,545.252,15.462,462.975,15.462z"/>
</g>
</svg>
