<!--?xml version="1.0" encoding="utf-8"?-->
<!-- Generator: Adobe Illustrator 16.0.3, SVG Export Plug-In . SVG Version: 6.00 Build 0)  -->

<svg version="1.1" xmlns="http://www.w3.org/2000/svg" xmlns:xlink="http://www.w3.org/1999/xlink" x="0px" y="0px" width="523px" height="394px" viewBox="0 0 523 394" style="" xml:space="preserve" class="">
<style type="text/css">

	.st0{fill:none;stroke:#E1007A;stroke-width:2;stroke-dasharray:5,5;}

</style>
<g id="line-05">
	<path class="st0 GvabNtwt_0" d="M262,134.8A126,126 0,1,1 514,134.8A126,126 0,1,1 262,134.8"></path>
</g>
<g id="line-04">
	<path class="st0 GvabNtwt_1" d="M10,134.8A126,126 0,1,1 262,134.8A126,126 0,1,1 10,134.8"></path>
</g>
<g id="line-03">
	<path class="st0 GvabNtwt_2" d="M10,134.8c236.3-33.3,252,252,252,252s15.8-285.3,252-252"></path>
</g>
<g id="line-02">
	<path class="st0 GvabNtwt_3" d="M350.3,179.1c8.6,11.4,22.3,18.8,37.7,18.8c26.1,0,47.3-21.2,47.3-47.3c0-4.9-0.7-9.6-2.1-14"></path>
</g>
<g id="line-01">
	<path class="st0 GvabNtwt_4" d="M173.7,179.1c-8.6,11.4-22.3,18.8-37.7,18.8c-26.1,0-47.3-21.2-47.3-47.3c0-4.9,0.7-9.6,2.1-14"></path>
</g>
<style>.GvabNtwt_0{stroke-dasharray:792 794;stroke-dashoffset:793;animation:GvabNtwt_draw 891ms linear 0ms forwards;}.GvabNtwt_1{stroke-dasharray:792 794;stroke-dashoffset:793;animation:GvabNtwt_draw 891ms linear 891ms forwards;}.GvabNtwt_2{stroke-dasharray:813 815;stroke-dashoffset:814;animation:GvabNtwt_draw 915ms linear 1783ms forwards;}.GvabNtwt_3{stroke-dasharray:133 135;stroke-dashoffset:134;animation:GvabNtwt_draw 150ms linear 2698ms forwards;}.GvabNtwt_4{stroke-dasharray:133 135;stroke-dashoffset:134;animation:GvabNtwt_draw 150ms linear 2849ms forwards;}@keyframes GvabNtwt_draw{100%{stroke-dashoffset:0;}}@keyframes GvabNtwt_fade{0%{stroke-opacity:1;}94.44444444444444%{stroke-opacity:1;}100%{stroke-opacity:0;}}</style></svg>
