<?xml version="1.0" encoding="utf-8"?>
<!-- Generator: Adobe Illustrator 16.0.3, SVG Export Plug-In . SVG Version: 6.00 Build 0)  -->
<!DOCTYPE svg PUBLIC "-//W3C//DTD SVG 1.1//EN" "http://www.w3.org/Graphics/SVG/1.1/DTD/svg11.dtd">
<svg version="1.1" id="Vrstva_1" xmlns="http://www.w3.org/2000/svg" xmlns:xlink="http://www.w3.org/1999/xlink" x="0px" y="0px"
	 width="1920px" height="467px" viewBox="0 0 1920 467" style="enable-background:new 0 0 1920 467;" xml:space="preserve">
<style type="text/css">
<![CDATA[
	.st0{fill:#E1007A;}
	.st1{fill:#9F0057;}
]]>
</style>
<g>
	<polygon class="st1" points="891.9,445 892.3,446.1 892.8,445 	"/>
	<path class="st1" d="M1934.5,446.1V-0.4l-107.9,300L1750,86.4l-113.8,316.3l-63.7-177.2l-73.8,205.4l-67.3-187.2l-75.7,178
		l-55.4-121.6l-46,127.8l-20.6-57.2l-19.9,55.4l-26.5-73.6l-21.4,59.6l-69.3-192.7l-78.1,217.1l-38.9-108.2l-38.2,106.3l-22.3-61.9
		l-26.4,73.4h-0.4h-0.4l-47.4-131.9l-38.4,106.7l-14.1-39.1l-14,38.8l-18.3-50.9l-24.7,68.7l-19.6-54.6l-16.2,45.1l-8-31.8
		l-10.3,41.1l-11.9-47.2L657,439.2l-14.1-56.2l-12.3,49.1l-15.9-63.2l-14.9,59.3c-100.2-47.2-212.2-109.4-289.6-180.5
		c-66.7-72.5-144.5-103.4-208-116l-9.8-39.1l-9,35.8c-0.4-0.1-0.8-0.1-1.2-0.2l-10-39.7l-9.4,37.3c-1-0.1-2-0.2-3-0.3L45.9,70.5
		L32.5,124c-12.8-0.3-23.8,0-32.5,0.5v321.6v151.4h1935.9V446.1H1934.5z"/>
</g>
<g>
	<polygon class="st0" points="1036.6,443.7 1036.2,444.9 1035.8,443.7 	"/>
	<path class="st0" d="M-14.5,444.9V-5.3L94.2,297.1l77.3-214.9l114.7,318.9l64.2-178.6l74.5,207l67.9-188.7l76.3,179.5l55.8-122.6
		l46.3,128.9l20.8-57.7l20.1,55.9l26.7-74.2l21.6,60.1l69.9-194.3L909,435.2l39.2-109.1l38.5,107.2l22.5-62.4l26.6,74h0.4h0.4
		l47.8-132.9l38.7,107.6l14.2-39.4l14.1,39.1l18.5-51.3l24.9,69.3l19.8-55.1l16.4,45.5l8-32l10.4,41.4l11.9-47.5l12.2,48.5
		l14.2-56.7l12.4,49.5l16-63.7l15,59.8c101.1-47.5,213.9-110.3,292-182c67.3-73.1,145.7-104.3,209.7-116.9l9.9-39.4l9.1,36.1
		c0.4-0.1,0.8-0.1,1.2-0.2l10-40l9.4,37.6c1-0.1,2-0.2,3-0.3l14-55.6l13.6,54c12.9-0.3,24,0,32.7,0.5v324.2v152.6H-15.9V444.9H-14.5
		z"/>
</g>
</svg>
