<?xml version="1.0" encoding="utf-8"?>
<!-- Generator: Adobe Illustrator 16.0.3, SVG Export Plug-In . SVG Version: 6.00 Build 0)  -->
<!DOCTYPE svg PUBLIC "-//W3C//DTD SVG 1.1//EN" "http://www.w3.org/Graphics/SVG/1.1/DTD/svg11.dtd">
<svg version="1.1" id="Vrstva_1" xmlns="http://www.w3.org/2000/svg" xmlns:xlink="http://www.w3.org/1999/xlink" x="0px" y="0px"
	 width="400px" height="225px" viewBox="0 0 400 225" style="enable-background:new 0 0 400 225;" xml:space="preserve">
<style type="text/css">
<![CDATA[
	.st0{fill:#E00079;}
	.st1{fill:#808080;}
	.st2{fill:#B2B2B2;}
	.st3{fill:#F2F2F2;}
	.st4{fill:#999999;}
	.st5{fill:#FFFFFF;}
	.st6{fill:#666666;}
	.st7{fill:#CCCCCC;}
	.st8{fill:#9E0E58;}
]]>
</style>
<path class="st6" d="M410.5,224.5V54.3c-1.6-0.8-3.6-1.5-5.6-1.2c-4.2,0.8-8,4.7-8,4.7l-3-2.8l-4,1l-9.9-3.4l-6.4,0.3l-3.3-2.5
	l-5.2,2.8l-11.7-12.6l-18.3-0.9l-5.2,3l-10.2,0.4l-5-1.2l-5,1.9l-5.3-1.3l-11.8,5.5l-2.8-1l-7.5,2.5l-5.3-2.4l-8,4.1l-14.6,0.7
	l-8.4-7.4c0,0-14.6-5.6-20-3.1c-5.3,2.5-17.9,7.8-17.9,7.8H191l-13.9-4.1l-5.5,2.1l-5.2-1.6l-16.7-0.9l-9.6,1l-39.2-8.1l-7.2-3.8
	l-6.1-4l-7.1-0.6L79,26.8c0,0,4.3-0.6-6.7-0.4S33.6,46.7,33.6,46.7s-0.4-1.4-2.2-0.6c-1.8,0.8-19.5,8.7-19.5,8.7l-5.9-1l-11.2,2
	v168.7H410.5z"/>
<g>
	<path class="st8" d="M195.8,60.7c0,4.4,3.6,8,8,8s8-3.6,8-8C211.7,56.3,195.8,56.3,195.8,60.7z M203.7,64.7c-1.7,0-3-1.3-3-3
		c0-1.7,1.3-3,3-3s3,1.3,3,3C206.7,63.3,205.4,64.7,203.7,64.7z"/>
	<path class="st8" d="M211.7,60.7c0,4.4,3.6,8,8,8c4.4,0,8-3.6,8-8C227.7,56.3,211.7,56.3,211.7,60.7z M219.7,64.7c-1.7,0-3-1.3-3-3
		c0-1.7,1.3-3,3-3c1.7,0,3,1.3,3,3C222.7,63.3,221.4,64.7,219.7,64.7z"/>
	<path class="st0" d="M219.7,52.7c-4.4,0-8,3.6-8,8c0-4.4-3.6-8-8-8s-8,3.6-8,8c15-2.1,16,16,16,16s1-18.1,16-16
		C227.7,56.3,224.1,52.7,219.7,52.7z"/>
</g>
<path class="st8" d="M127.8,68.7c-2,0-3.6,1.6-3.6,3.6c0-2-1.6-3.6-3.6-3.6c-2,0-3.6,1.6-3.6,3.6c0,2,1.6,3.6,3.6,3.6
	c0.9,0,1.6-0.3,2.3-0.8c1.2,2,1.3,4.4,1.3,4.4s0.1-2.4,1.3-4.4c0.6,0.5,1.4,0.8,2.3,0.8c2,0,3.6-1.6,3.6-3.6
	C131.4,70.3,129.8,68.7,127.8,68.7z"/>
<path class="st8" d="M114.9,24.9c-1.3,0-2.3,1-2.3,2.3c0-1.3-1-2.3-2.3-2.3c-1.3,0-2.3,1-2.3,2.3c0,1.3,1,2.3,2.3,2.3
	c0.5,0,1-0.2,1.4-0.5c0.7,1.3,0.8,2.8,0.8,2.8s0.1-1.5,0.8-2.8c0.4,0.3,0.9,0.5,1.4,0.5c1.3,0,2.3-1,2.3-2.3
	C117.1,25.9,116.1,24.9,114.9,24.9z"/>
<path class="st8" d="M267.9,35.1c-1.3,0-2.3,1-2.3,2.3c0-1.3-1-2.3-2.3-2.3c-1.3,0-2.3,1-2.3,2.3c0,1.3,1,2.3,2.3,2.3
	c0.5,0,1-0.2,1.4-0.5c0.7,1.3,0.8,2.8,0.8,2.8s0.1-1.5,0.8-2.8c0.4,0.3,0.9,0.5,1.4,0.5c1.3,0,2.3-1,2.3-2.3
	C270.2,36.1,269.2,35.1,267.9,35.1z"/>
<path class="st8" d="M87.7,49.1c-2,0-3.6,1.6-3.6,3.6c0-2-1.6-3.6-3.6-3.6S77,50.7,77,52.7c0,2,1.6,3.6,3.6,3.6
	c0.9,0,1.6-0.3,2.3-0.8c1.2,2,1.3,4.4,1.3,4.4s0.1-2.4,1.3-4.4c0.6,0.5,1.4,0.8,2.3,0.8c2,0,3.6-1.6,3.6-3.6
	C91.3,50.7,89.7,49.1,87.7,49.1z"/>
<polygon class="st1" points="394.5,56.9 382.6,59.1 366.2,67.5 352.6,66.7 347.9,69.5 343.1,66.2 329.3,66.7 322.9,64.8 318,67.3 
	315.9,68.8 305.4,69.1 296.5,73.9 276.2,72.8 272.5,70.9 268.3,72.9 261.5,75.6 233.1,80.5 215.2,84.8 192.3,85 185.6,87.6 
	143.5,86.8 127.9,83.7 107.8,88.3 99.8,84.8 87.7,83.7 79.9,78.3 70.9,77.9 62.2,85.4 41,89.6 35.2,85.5 26.4,84.6 15.5,72.8 
	9.3,71.2 0.6,72.3 -5.2,64.9 -5.2,224.5 409.9,224.5 410.5,55.2 402.1,52 "/>
<g>
	<path class="st0" d="M152.5,110.7c-1.2-1.1-2.6-1.9-4.4-2.3c-1.3-0.3-2.7-0.3-4.3-0.1c0,3.7,3,6.7,6.7,6.7c1.6,0,3.1-0.6,4.2-1.5
		C154.2,112.5,153.4,111.5,152.5,110.7z"/>
	<path class="st0" d="M166.3,108.4c-1.8,0.4-3.2,1.2-4.4,2.3c-0.9,0.8-1.7,1.8-2.2,2.8c1.2,0.9,2.6,1.5,4.2,1.5c3.7,0,6.7-3,6.7-6.7
		C169,108.1,167.6,108.1,166.3,108.4z"/>
	<path class="st8" d="M163.9,101.6c-3.7,0-6.7,3-6.7,6.7c0-3.7-3-6.7-6.7-6.7c-3.7,0-6.7,3-6.7,6.7c1.6-0.2,3-0.2,4.3,0.1
		c0.3-1,1.3-1.8,2.4-1.8c1.4,0,2.5,1.1,2.5,2.5c0,0.6-0.2,1.1-0.5,1.5c0.9,0.8,1.7,1.8,2.2,2.8c2.2,3.8,2.5,8.2,2.5,8.2
		s0.2-4.4,2.5-8.2c0.6-1,1.3-2,2.2-2.8c-0.3-0.4-0.5-0.9-0.5-1.5c0-1.4,1.1-2.5,2.5-2.5c1.1,0,2.1,0.7,2.4,1.8
		c1.3-0.3,2.7-0.3,4.3-0.1C170.6,104.6,167.6,101.6,163.9,101.6z"/>
</g>
<path class="st4" d="M410.5,224.5V78.9l-17.6,8.1l-5.6-2.8l-7.9,3.2l-4.3-1.8l-16.6,7.7l-15.2-8.7l-11.3,0.6l-8.5-6.1l-4.3,2
	l-5.6,0.2l-18.3,6.7l-8.4,0.1l-23.6,9c0,0-4.5,4.3-17.4,8.6c-14.4-1.5-50,18.2-50,18.2l-7.2-2l-17.3,5.4l-3.3-2.9l-3.5,0.8
	l-17.1-11.8l-6.6-1.8l-27.3-13.8l-6.2,0.7l-5.2,2.4l-8.3-0.2l-12.3,3.9l-10.4-2.9l-12.7,2.2c0,0-8.5,2.2-15.2,5.4
	c-11.2-3.5-34.4,5.2-34.4,5.2s-8.6-6.9-14.3-9v118.8H410.5z"/>
<g>
	<path class="st0" d="M262.5,132c-0.8-0.7-1.8-1.3-3-1.5c-0.8-0.2-1.8-0.2-2.9-0.1c0,2.5,2,4.5,4.5,4.5c1.1,0,2.1-0.4,2.9-1
		C263.6,133.2,263.1,132.5,262.5,132z"/>
	<path class="st0" d="M271.8,130.4c-1.2,0.3-2.2,0.8-3,1.5c-0.6,0.6-1.1,1.2-1.5,1.9c0.8,0.6,1.8,1,2.9,1c2.5,0,4.5-2,4.5-4.5
		C273.6,130.2,272.7,130.3,271.8,130.4z"/>
	<path class="st8" d="M270.2,125.8c-2.5,0-4.5,2-4.5,4.5c0-2.5-2-4.5-4.5-4.5s-4.5,2-4.5,4.5c1.1-0.2,2.1-0.1,2.9,0.1
		c0.2-0.7,0.9-1.2,1.6-1.2c0.9,0,1.7,0.8,1.7,1.7c0,0.4-0.1,0.7-0.3,1c0.6,0.6,1.1,1.2,1.5,1.9c1.5,2.6,1.7,5.6,1.7,5.6
		s0.2-3,1.7-5.6c0.4-0.7,0.9-1.4,1.5-1.9c-0.2-0.3-0.3-0.6-0.3-1c0-0.9,0.8-1.7,1.7-1.7c0.8,0,1.4,0.5,1.6,1.2
		c0.8-0.2,1.8-0.2,2.9-0.1C274.7,127.9,272.7,125.8,270.2,125.8z"/>
</g>
<g>
	<circle class="st5" cx="184.6" cy="123.9" r="8.8"/>
	<circle class="st8" cx="184.6" cy="125" r="3.3"/>
	<path class="st0" d="M184.6,115.1c-4.8,0-8.8,3.9-8.8,8.8c16.4-2.3,17.5,17.5,17.5,17.5v-17.5C193.4,119.1,189.4,115.1,184.6,115.1
		z"/>
	<circle class="st5" cx="202.1" cy="123.9" r="8.8"/>
	<circle class="st8" cx="202.1" cy="125" r="3.3"/>
	<path class="st0" d="M202.1,115.1c4.8,0,8.8,3.9,8.8,8.8c-16.4-2.3-17.5,17.5-17.5,17.5v-17.5C193.4,119.1,197.3,115.1,202.1,115.1
		z"/>
</g>
<path class="st2" d="M409.3,224.5v-61c-20,17.8-48.7,23.9-48.7,23.9l-38.3-36.8l-7.6-2l-2.8-3.7l-19.4-2.6L256.3,153l-19.8-9.8
	l-25.1,4.4c0,0-41.6-23.1-45.8-23.1c-4.1,0-35.5,18.7-35.5,18.7s-2.8,0-18.7-2.2s-34.2-19.4-46.6-19s-19.2,10.5-23.1,10.5
	s-12.4-3.1-12.4-3.1l-10.9-9.4l-23.5-13.7v118.1H409.3z"/>
<g>
	<path class="st8" d="M153.9,178.8c-0.9,1.2-2.3,1.9-3.8,1.9c-2.6,0-4.8-2.1-4.8-4.8c0-0.5,0.1-1,0.2-1.4c-2.4-0.5-5.1-0.6-8.2-0.2
		c0,7,5.7,12.7,12.7,12.7c3.1,0,5.9-1.1,8.1-2.9C157,182.3,155.6,180.4,153.9,178.8z"/>
	<path class="st8" d="M180.1,174.5c0.1,0.4,0.2,0.9,0.2,1.4c0,2.6-2.1,4.8-4.8,4.8c-1.6,0-2.9-0.7-3.8-1.9c-1.7,1.6-3.1,3.4-4.3,5.4
		c2.2,1.8,5,2.9,8.1,2.9c7,0,12.7-5.7,12.7-12.7C185.2,173.9,182.5,174,180.1,174.5z"/>
	<path class="st0" d="M175.6,161.6c-7,0-12.7,5.7-12.7,12.7c0-7-5.7-12.7-12.7-12.7c-7,0-12.7,5.7-12.7,12.7
		c3.1-0.4,5.8-0.3,8.2,0.2c0.6-1.9,2.4-3.4,4.6-3.4c2.6,0,4.8,2.1,4.8,4.8c0,1.1-0.4,2.1-1,2.9c1.7,1.6,3.1,3.4,4.3,5.4
		c4.2,7.2,4.7,15.6,4.7,15.6s0.5-8.4,4.7-15.6c1.1-1.9,2.5-3.8,4.3-5.4c-0.6-0.8-1-1.8-1-2.9c0-2.6,2.1-4.8,4.8-4.8
		c2.1,0,4,1.4,4.6,3.4c2.4-0.5,5.1-0.6,8.2-0.2C188.3,167.3,182.6,161.6,175.6,161.6z"/>
</g>
<polygon class="st7" points="319.6,224.5 255.3,200.4 230,204.3 215.1,204.6 183.7,199.1 148.7,190.1 127.9,173.9 102.3,161.5 
	89.1,147.6 77.7,142.1 45.6,140.8 28.8,135.6 17.4,121 -5.2,108.1 -5.2,224.5 "/>
<g>
	<path class="st3" d="M169.2,219.9l-3-8.5l-3,8.4l-4-11l-5.3,14.9l-4.2-11.8l-3.5,9.8l-1.7-6.9l-2.2,8.9l-2.6-10.2l-2.6,10.4
		l-3.1-12.2l-2.7,10.6l-3.4-13.7l-3.2,12.8c-21.7-10.2-45.9-23.7-62.6-39c-14.4-15.7-31.3-22.4-45-25.1l-2.1-8.4l-1.9,7.7
		c-0.1,0-0.2,0-0.3,0l-2.2-8.6l-2,8.1c-0.2,0-0.4,0-0.6-0.1l-3-11.9l-2.9,11.6c-2.8-0.1-5.2,0-7,0.1v69.6h192.9l-10.3-28.5
		L169.2,219.9z"/>
	<polygon class="st3" points="389.9,193.7 373.3,147.6 348.7,216 334.9,177.7 319,222.1 304.4,181.6 288,220.1 276.1,193.8 
		266.1,221.5 261.7,209.1 257.3,221.1 251.6,205.2 247,218.1 232,176.4 215.1,223.3 206.7,199.9 198.4,222.9 193.6,209.5 
		187.9,225.4 413.2,225.4 413.2,128.8 	"/>
</g>
</svg>
